<?xml version="1.0" standalone="no"?>
<!DOCTYPE svg PUBLIC "-//W3C//DTD SVG 20010904//EN"
 "http://www.w3.org/TR/2001/REC-SVG-20010904/DTD/svg10.dtd">
<svg version="1.0" xmlns="http://www.w3.org/2000/svg"
 width="1024.000000pt" height="1024.000000pt" viewBox="0 0 1024.000000 1024.000000"
 preserveAspectRatio="xMidYMid meet">
<metadata>
Created by potrace 1.14, written by Peter Selinger 2001-2017
</metadata>
<g transform="translate(0.000000,1024.000000) scale(0.100000,-0.100000)"
fill="#000000" stroke="none">
<path d="M5094 10054 c-16 -7 -119 -57 -229 -110 -110 -53 -245 -118 -300
-144 -55 -26 -172 -82 -260 -125 -176 -85 -363 -175 -555 -267 -69 -33 -186
-90 -260 -125 -74 -36 -193 -94 -265 -128 -213 -103 -411 -198 -565 -272 -80
-39 -197 -95 -260 -126 -110 -53 -230 -110 -555 -267 -82 -40 -199 -96 -260
-125 -60 -29 -182 -87 -270 -130 -88 -42 -183 -88 -212 -101 -28 -13 -54 -28
-57 -32 -3 -4 -28 -109 -56 -233 -84 -368 -139 -607 -165 -724 -14 -60 -43
-189 -66 -285 -22 -96 -43 -186 -45 -200 -3 -14 -14 -63 -25 -110 -11 -47 -23
-96 -25 -110 -3 -14 -16 -70 -29 -125 -13 -55 -26 -111 -29 -125 -2 -14 -36
-164 -75 -334 -39 -171 -74 -323 -77 -340 -3 -16 -7 -33 -10 -37 -2 -4 -9 -29
-14 -56 -5 -26 -23 -109 -40 -183 -18 -74 -34 -146 -36 -160 -3 -14 -7 -33
-10 -42 -3 -9 -7 -25 -9 -35 -2 -10 -15 -70 -30 -133 -14 -63 -28 -124 -30
-135 -3 -11 -23 -99 -45 -195 -22 -96 -42 -184 -45 -195 -5 -24 -75 -333 -115
-508 -17 -71 -30 -134 -30 -142 0 -7 20 -37 44 -66 24 -30 179 -225 346 -434
166 -209 309 -389 318 -400 10 -11 33 -40 52 -65 43 -55 62 -79 75 -94 6 -6
35 -42 65 -81 30 -38 62 -78 70 -88 48 -59 143 -178 516 -647 169 -212 316
-396 328 -410 11 -14 33 -41 47 -60 15 -19 35 -45 45 -57 11 -12 30 -36 43
-53 45 -58 513 -645 540 -676 14 -17 37 -46 51 -64 18 -25 193 -245 276 -349
2 -2 1024 -4 2271 -4 2211 0 2267 1 2280 19 7 11 99 128 205 260 106 133 205
257 220 275 14 19 93 118 175 220 81 102 162 203 178 223 17 21 93 118 171
215 78 97 322 403 543 681 222 278 415 521 431 540 15 19 69 87 120 150 50 63
104 131 120 150 15 19 128 161 251 315 122 154 260 327 306 384 45 57 83 109
83 116 0 7 -11 61 -25 121 -25 109 -61 268 -71 313 -3 12 -12 53 -20 90 -9 36
-17 73 -19 81 -2 8 -8 33 -13 55 -6 22 -13 51 -16 65 -2 14 -14 68 -26 120
-12 52 -23 102 -25 110 -2 8 -45 195 -95 415 -51 220 -94 411 -96 425 -3 14
-11 50 -19 80 -8 30 -16 66 -19 80 -4 26 -106 470 -131 575 -8 33 -28 121 -45
195 -16 74 -41 185 -55 245 -14 61 -28 123 -31 139 -3 16 -7 32 -9 36 -2 3 -6
17 -9 31 -15 73 -52 242 -81 364 -18 76 -84 363 -89 390 -3 11 -12 52 -21 90
-9 39 -19 81 -21 94 -3 12 -12 53 -20 90 -9 36 -18 75 -20 86 -16 82 -31 118
-54 131 -14 8 -110 55 -215 105 -104 50 -251 121 -325 156 -74 36 -189 92
-255 123 -121 58 -270 130 -530 255 -190 92 -375 181 -525 253 -69 33 -206 99
-305 147 -99 48 -216 104 -260 125 -44 21 -165 79 -270 130 -104 51 -233 112
-285 137 -52 25 -174 84 -270 131 -96 46 -224 108 -285 137 -169 81 -353 169
-425 205 -100 49 -104 50 -136 34z"/>
</g>
</svg>
